<svg width="80" height="22" viewBox="0 0 80 22" xmlns="http://www.w3.org/2000/svg">
  <g fill="#292C3D" fill-rule="evenodd">
    <path d="M3.104 19V1.96H14.36v1.92H5.264v5.688h7.656v1.8H5.264V19h-2.16zm12.84-2.544c.32.224.752.424 1.296.6s1.16.264 1.848.264c.816 0 1.464-.144 1.944-.432.48-.288.844-.716 1.092-1.284.248-.568.412-1.268.492-2.1.08-.832.12-1.792.12-2.88v-8.64h2.16v8.64c0 1.296-.06 2.476-.18 3.54s-.384 1.972-.792 2.724c-.408.752-.992 1.336-1.752 1.752-.76.416-1.788.624-3.084.624-1.44 0-2.672-.352-3.696-1.056l.552-1.752zm19.8 2.664c-1.2 0-2.292-.244-3.276-.732s-1.828-1.136-2.532-1.944-1.248-1.732-1.632-2.772c-.384-1.04-.576-2.104-.576-3.192 0-1.136.204-2.224.612-3.264.408-1.04.972-1.96 1.692-2.76.72-.8 1.572-1.436 2.556-1.908s2.052-.708 3.204-.708c1.2 0 2.288.252 3.264.756s1.816 1.164 2.52 1.98c.704.816 1.248 1.74 1.632 2.772.384 1.032.576 2.084.576 3.156 0 1.136-.204 2.224-.612 3.264-.408 1.04-.968 1.956-1.68 2.748-.712.792-1.56 1.424-2.544 1.896s-2.052.708-3.204.708zm-5.832-8.64c0 .864.14 1.7.42 2.508.28.808.676 1.524 1.188 2.148.512.624 1.128 1.12 1.848 1.488.72.368 1.52.552 2.4.552.912 0 1.728-.196 2.448-.588.72-.392 1.332-.904 1.836-1.536s.888-1.348 1.152-2.148c.264-.8.396-1.608.396-2.424 0-.864-.14-1.7-.42-2.508-.28-.808-.68-1.52-1.2-2.136-.52-.616-1.136-1.108-1.848-1.476-.712-.368-1.5-.552-2.364-.552-.912 0-1.728.192-2.448.576-.72.384-1.332.888-1.836 1.512s-.892 1.336-1.164 2.136c-.272.8-.408 1.616-.408 2.448zM46.808 19V1.96h7.296c.752 0 1.444.156 2.076.468.632.312 1.176.728 1.632 1.248.456.52.812 1.104 1.068 1.752.256.648.384 1.308.384 1.98 0 .592-.084 1.164-.252 1.716-.168.552-.408 1.052-.72 1.5-.312.448-.688.832-1.128 1.152-.44.32-.932.552-1.476.696L59.816 19h-2.448l-3.888-6.12h-4.512V19h-2.16zm2.16-8.04h5.16c.448 0 .852-.096 1.212-.288.36-.192.668-.452.924-.78s.456-.708.6-1.14c.144-.432.216-.88.216-1.344 0-.48-.084-.932-.252-1.356-.168-.424-.392-.8-.672-1.128-.28-.328-.608-.584-.984-.768-.376-.184-.772-.276-1.188-.276h-5.016v7.08zM62.744 19V1.96h5.904c1.36 0 2.556.224 3.588.672 1.032.448 1.892 1.056 2.58 1.824.688.768 1.204 1.668 1.548 2.7.344 1.032.516 2.132.516 3.3 0 1.296-.192 2.468-.576 3.516-.384 1.048-.936 1.944-1.656 2.688-.72.744-1.588 1.32-2.604 1.728-1.016.408-2.148.612-3.396.612h-5.904zm11.952-8.544c0-.96-.132-1.844-.396-2.652s-.656-1.5-1.176-2.076c-.52-.576-1.156-1.028-1.908-1.356-.752-.328-1.608-.492-2.568-.492h-3.744v13.2h3.744c.976 0 1.844-.168 2.604-.504.76-.336 1.392-.8 1.896-1.392.504-.592.888-1.292 1.152-2.1.264-.808.396-1.684.396-2.628z"/>
    <path d="M4 2h21v2H4zM34 11h14v2H34z"/>
  </g>
</svg>
