<svg width="230" height="80" viewBox="0 0 230 80" xmlns="http://www.w3.org/2000/svg">
  <g fill="#4F5260" fill-rule="evenodd">
    <path d="M43.738 30.26L33.645 52.283l-2.752-9.175-9.176-2.753 22.02-10.093zM50 24L13 40.958l15.417 4.625L33.042 61 50 24zM69.548 40V27.418h2.808v10.08h5.364V40h-8.172zm13.788-2.907c.45.498 1.026.747 1.728.747s1.278-.25 1.728-.747c.45-.498.675-1.143.675-1.935s-.225-1.44-.675-1.944c-.45-.504-1.026-.756-1.728-.756s-1.278.252-1.728.756c-.45.504-.675 1.152-.675 1.944s.226 1.437.676 1.935zm5.39 1.61c-.97.96-2.192 1.44-3.662 1.44-1.47 0-2.69-.48-3.663-1.44-.97-.96-1.457-2.14-1.457-3.545 0-1.404.486-2.59 1.458-3.555.973-.966 2.194-1.45 3.664-1.45 1.47 0 2.69.484 3.663 1.45.972.966 1.458 2.15 1.458 3.555 0 1.404-.486 2.586-1.458 3.546zm9.226-.953c.9 0 1.71-.45 2.43-1.35l1.602 1.8c-1.248 1.296-2.598 1.944-4.05 1.944s-2.68-.46-3.68-1.377c-1.003-.918-1.504-2.118-1.504-3.6 0-1.482.507-2.688 1.52-3.618 1.015-.93 2.218-1.396 3.61-1.396.696 0 1.4.144 2.115.432.714.288 1.34.714 1.88 1.278l-1.403 1.836c-.312-.372-.693-.66-1.143-.864-.45-.204-.898-.306-1.342-.306-.708 0-1.317.23-1.827.693-.51.462-.764 1.104-.764 1.926 0 .82.255 1.46.765 1.916.51.456 1.108.684 1.792.684zM113.135 40h-2.538v-1.17c-.696.876-1.557 1.314-2.583 1.314-1.026 0-1.887-.297-2.583-.89-.695-.595-1.043-1.387-1.043-2.377 0-.99.36-1.73 1.08-2.223.72-.492 1.704-.738 2.952-.738h2.015v-.054c0-1.032-.546-1.548-1.638-1.548-.468 0-.963.093-1.485.28-.522.185-.963.416-1.323.692l-1.207-1.746c1.272-.924 2.724-1.386 4.356-1.386 1.175 0 2.135.294 2.88.882.743.588 1.115 1.518 1.115 2.79V40zm-2.718-3.69v-.468h-1.692c-1.08 0-1.62.336-1.62 1.008 0 .348.13.615.387.8.258.187.627.28 1.107.28s.902-.147 1.268-.44c.366-.295.55-.688.55-1.18zm9.423-4.05v4.338c0 .372.096.663.288.873.192.21.42.316.684.316.504 0 .93-.228 1.278-.684l1.008 1.89c-.84.768-1.725 1.152-2.655 1.152-.93 0-1.716-.306-2.358-.918-.642-.612-.963-1.446-.963-2.502V32.26h-1.134v-1.944h1.134v-2.898h2.718v2.898h2.34v1.944h-2.34zm14.21 6.336c-1.09 1.032-2.372 1.548-3.842 1.548-1.47 0-2.685-.453-3.645-1.36-.96-.905-1.44-2.12-1.44-3.644s.49-2.736 1.467-3.636c.978-.9 2.133-1.35 3.465-1.35 1.332 0 2.463.402 3.393 1.206.93.804 1.395 1.908 1.395 3.312v1.44h-7.056c.084.528.36.96.828 1.296.468.336.996.504 1.584.504.947 0 1.727-.318 2.34-.954l1.51 1.638zm-2.59-5.742c-.373-.312-.826-.468-1.36-.468-.534 0-1.023.162-1.467.486-.444.324-.702.762-.774 1.314h4.247c-.06-.576-.276-1.02-.648-1.332zm6.182 5.706c0-.444.153-.82.46-1.125.305-.306.68-.46 1.124-.46.444 0 .82.154 1.125.46.307.306.46.68.46 1.125 0 .444-.153.82-.46 1.125-.305.306-.68.46-1.124.46-.444 0-.82-.154-1.125-.46-.305-.306-.458-.68-.458-1.125zm18.117-6.48l-3.403 6.876h-1.674L147.3 32.08V40h-2.81V27.418h3.8l3.24 6.912 3.257-6.912h3.78V40h-2.808v-7.92zm15.146 6.516c-1.092 1.032-2.373 1.548-3.843 1.548-1.47 0-2.685-.453-3.645-1.36-.96-.905-1.44-2.12-1.44-3.644s.49-2.736 1.467-3.636c.978-.9 2.133-1.35 3.465-1.35 1.332 0 2.463.402 3.393 1.206.93.804 1.395 1.908 1.395 3.312v1.44h-7.056c.084.528.36.96.828 1.296.468.336.996.504 1.584.504.948 0 1.728-.318 2.34-.954l1.512 1.638zm-2.592-5.742c-.372-.312-.825-.468-1.36-.468-.533 0-1.022.162-1.466.486-.444.324-.702.762-.774 1.314h4.248c-.06-.576-.276-1.02-.648-1.332zM71.97 51.5V58h-1.297v-6.5H68.34v-1.19h5.963v1.19H71.97zm7.322 1.803c-.61 0-1.067.198-1.375.594-.31.396-.462.928-.462 1.595V58h-1.232v-5.852h1.232v1.177c.198-.367.467-.667.808-.902.34-.235.702-.356 1.084-.363l.01 1.243h-.065zM85.962 58h-1.12v-.78c-.485.578-1.134.868-1.948.868-.61 0-1.113-.172-1.512-.517-.4-.344-.6-.804-.6-1.38 0-.575.213-1.006.638-1.292.425-.286 1-.43 1.727-.43h1.595v-.22c0-.776-.433-1.165-1.298-1.165-.543 0-1.107.198-1.694.594l-.55-.77c.71-.565 1.518-.847 2.42-.847.69 0 1.252.174 1.69.522.435.35.653.897.653 1.645V58zm-1.23-2.178v-.495h-1.387c-.887 0-1.33.28-1.33.836 0 .286.11.504.33.655.22.15.525.225.918.225.392 0 .735-.11 1.028-.33.294-.22.44-.517.44-.89zM89.85 58l-2.354-5.852h1.276l1.782 4.422 1.782-4.422h1.276L91.26 58h-1.408zm10.873-2.387h-4.587c.03.425.224.768.583 1.03.36.26.77.39 1.233.39.733 0 1.29-.232 1.672-.694l.704.77c-.632.652-1.453.978-2.465.978-.82 0-1.52-.273-2.095-.82-.576-.546-.864-1.28-.864-2.2 0-.92.293-1.65.88-2.194.587-.543 1.278-.814 2.074-.814.795 0 1.472.24 2.03.72.556.48.835 1.143.835 1.986v.847zm-4.587-.968h3.355c0-.49-.154-.87-.462-1.133-.307-.264-.686-.396-1.137-.396-.452 0-.857.137-1.216.413-.36.274-.54.646-.54 1.115zm7.86 3.355h-1.232v-8.162h1.232V58zm8.415.088c-.72 0-1.33-.2-1.837-.6-.507-.4-.76-.947-.76-1.644 0-.83.602-1.566 1.805-2.21-.3-.346-.51-.628-.632-.848-.12-.22-.18-.5-.18-.836 0-.587.215-1.038.648-1.353.432-.315.942-.473 1.53-.473.585 0 1.084.15 1.495.45.41.302.617.723.617 1.266 0 .726-.587 1.412-1.76 2.057.586.72 1.063 1.27 1.43 1.65.227-.337.403-.73.528-1.177l.902.638c-.19.506-.407.95-.65 1.33.294.302.668.665 1.123 1.09l-.825.77-1.012-1c-.646.593-1.452.89-2.42.89zm-.957-1.38c.278.21.648.313 1.11.313.463 0 .954-.212 1.475-.637-.74-.777-1.327-1.43-1.76-1.958-.828.447-1.242.94-1.242 1.474 0 .33.14.598.418.808zm.863-5.374c-.195.154-.292.334-.292.54 0 .204.05.39.148.555.1.164.27.393.512.686.828-.41 1.243-.792 1.243-1.144 0-.293-.097-.51-.29-.655-.195-.143-.415-.214-.66-.214-.247 0-.467.077-.66.23zm11.137 4.917l-.77 1.75H121.3l3.39-7.69h1.385l3.388 7.69h-1.386l-.77-1.75h-3.85zm3.322-1.198l-1.398-3.168-1.397 3.168h2.794zm4.712 2.2c-.55-.557-.825-1.29-.825-2.2 0-.91.282-1.635.847-2.178.565-.543 1.237-.814 2.02-.814.78 0 1.408.33 1.885.99v-3.212h1.23V58h-1.23v-.88c-.456.645-1.12.968-1.992.968-.74 0-1.386-.28-1.936-.836zm.946-.78c.36.35.78.527 1.265.527.484 0 .895-.18 1.232-.534.337-.356.506-.813.506-1.37 0-.557-.168-1.023-.505-1.397-.337-.375-.752-.562-1.243-.562-.49 0-.913.187-1.265.56-.352.375-.528.842-.528 1.404 0 .56.18 1.017.538 1.37zM140.672 58l-2.354-5.852h1.275l1.782 4.422 1.782-4.422h1.276L142.08 58h-1.41zm10.873-2.387h-4.587c.03.425.224.768.583 1.03.36.26.77.39 1.233.39.733 0 1.29-.232 1.672-.694l.704.77c-.632.652-1.453.978-2.465.978-.82 0-1.52-.273-2.095-.82-.576-.546-.864-1.28-.864-2.2 0-.92.293-1.65.88-2.194.587-.543 1.278-.814 2.074-.814.795 0 1.472.24 2.03.72.556.48.835 1.143.835 1.986v.847zm-4.587-.968h3.355c0-.49-.154-.87-.462-1.133-.307-.264-.686-.396-1.137-.396-.452 0-.857.137-1.216.413-.36.274-.54.646-.54 1.115zm7.86.187V58h-1.232v-5.852h1.232v1.067c.198-.36.47-.642.82-.847.347-.205.723-.308 1.127-.308.66 0 1.193.202 1.6.605.407.403.61.986.61 1.75V58h-1.23v-3.212c0-1.078-.45-1.617-1.343-1.617-.426 0-.796.142-1.11.425-.317.282-.474.694-.474 1.237zm8.002-1.694v2.97c0 .28.073.5.22.666.147.165.352.247.616.247s.517-.127.76-.384l.505.87c-.432.388-.91.582-1.434.582-.525 0-.972-.18-1.342-.544-.37-.364-.556-.853-.556-1.47V53.14h-.737v-.99h.738V50.31h1.232v1.838h1.54v.99h-1.54zm7.86 2.178v-3.168h1.232V58h-1.232v-1.067c-.2.36-.472.642-.82.847-.348.205-.724.308-1.127.308-.66 0-1.194-.202-1.6-.605-.408-.403-.61-.986-.61-1.75V52.15h1.23v3.212c0 1.078.448 1.617 1.343 1.617.425 0 .795-.14 1.11-.423.316-.283.474-.695.474-1.238zm6.77-2.013c-.61 0-1.067.198-1.375.594-.308.396-.462.928-.462 1.595V58h-1.232v-5.852h1.233v1.177c.198-.367.467-.667.81-.902.34-.235.7-.356 1.082-.363l.01 1.243h-.065zm7.43 2.31h-4.586c.03.425.223.768.583 1.03.36.26.77.39 1.232.39.732 0 1.29-.232 1.67-.694l.705.77c-.63.652-1.452.978-2.464.978-.82 0-1.52-.273-2.095-.82-.576-.546-.863-1.28-.863-2.2 0-.92.293-1.65.88-2.194.586-.543 1.277-.814 2.073-.814s1.472.24 2.03.72c.557.48.836 1.143.836 1.986v.847zm-4.586-.968h3.355c0-.49-.155-.87-.463-1.133-.31-.264-.688-.396-1.14-.396-.45 0-.855.137-1.214.413-.36.274-.54.646-.54 1.115zm11.594 1.606l-.77 1.75h-1.386l3.388-7.69h1.386l3.388 7.69h-1.386l-.77-1.75h-3.85zm3.322-1.198l-1.397-3.168-1.397 3.168h2.794zm9.41-2.178c.557.543.836 1.265.836 2.167 0 .903-.277 1.636-.83 2.2-.554.566-1.2.848-1.936.848-.738 0-1.4-.323-1.986-.968v3.014h-1.232v-7.986h1.232v1.023c.484-.74 1.118-1.11 1.903-1.11.785 0 1.456.27 2.013.814zm-3.432 3.58c.337.356.748.534 1.232.534s.906-.176 1.265-.528c.36-.352.54-.808.54-1.37 0-.56-.177-1.026-.53-1.397-.35-.37-.773-.555-1.264-.555-.49 0-.905.185-1.242.555-.337.37-.506.835-.506 1.392 0 .557.17 1.014.506 1.37zm11.512-3.58c.557.543.836 1.265.836 2.167 0 .903-.277 1.636-.83 2.2-.555.566-1.2.848-1.937.848-.738 0-1.4-.323-1.986-.968v3.014h-1.232v-7.986h1.232v1.023c.484-.74 1.118-1.11 1.903-1.11.784 0 1.455.27 2.013.814zm-3.432 3.58c.337.356.747.534 1.232.534.484 0 .905-.176 1.265-.528.36-.352.54-.808.54-1.37 0-.56-.177-1.026-.53-1.397-.352-.37-.773-.555-1.264-.555-.49 0-.905.185-1.242.555-.338.37-.506.835-.506 1.392 0 .557.168 1.014.506 1.37z"/>
  </g>
</svg>
