<svg width="230" height="80" viewBox="0 0 230 80" xmlns="http://www.w3.org/2000/svg" xmlns:xlink="http://www.w3.org/1999/xlink">
  <defs>
    <path id="a" d="M0 0h39v50H0z"/>
    <mask id="b" x="0" y="0" width="39" height="50" fill="#fff">
      <use xlink:href="#a"/>
    </mask>
  </defs>
  <g transform="translate(28 16)" fill="none" fill-rule="evenodd">
    <use stroke="#4F5260" mask="url(#b)" stroke-width="6" xlink:href="#a"/>
    <path d="M61.448 13.528c0 1.792-.71 2.95-2.128 3.472l2.832 4H59.08l-2.48-3.568h-1.728V21h-2.496V9.816h4.24c1.74 0 2.98.293 3.72.88.74.587 1.112 1.53 1.112 2.832zm-3.008 1.328c.31-.277.464-.717.464-1.32 0-.603-.16-1.016-.48-1.24-.32-.224-.88-.336-1.68-.336h-1.872v3.312h1.824c.853 0 1.435-.14 1.744-.416zM72.865 21l-1.04-2.416h-4.688L66.097 21H63.44l4.833-11.184h2.416L75.52 21h-2.655zm-3.376-7.856l-1.41 3.248h2.8l-1.39-3.248zm12.136-1.168V21H79.13v-9.024h-3.168v-2.16h8.832v2.16h-3.168zm5.88-2.16h2.497V21h-2.496V9.816zm13.738 2.976c-.64-.704-1.427-1.056-2.36-1.056-.934 0-1.72.352-2.36 1.056-.64.704-.96 1.555-.96 2.552 0 .997.32 1.845.96 2.544.64.7 1.426 1.048 2.36 1.048.933 0 1.72-.35 2.36-1.048.64-.7.96-1.547.96-2.544 0-.997-.32-1.848-.96-2.552zm-2.368 8.32c-1.654 0-3.046-.552-4.176-1.656-1.13-1.104-1.696-2.477-1.696-4.12 0-1.643.565-3.016 1.696-4.12 1.13-1.104 2.522-1.656 4.176-1.656 1.653 0 3.045.552 4.176 1.656 1.13 1.104 1.696 2.477 1.696 4.12 0 1.643-.566 3.016-1.696 4.12s-2.523 1.656-4.176 1.656zm16.696-11.296h2.496V21h-2.496l-5.328-7.008V21h-2.496V9.816h2.336l5.488 7.2v-7.2zM129.677 21l-1.04-2.416h-4.688L122.91 21h-2.657l4.832-11.184h2.416L132.334 21h-2.656zm-3.376-7.856l-1.407 3.248h2.8l-1.392-3.248zM134.52 21V9.816h2.496v8.96h4.768V21h-7.264zM59.64 34.304h2.512v3.968c-1.11 1.237-2.645 1.856-4.608 1.856-1.643 0-3.02-.544-4.136-1.632-1.115-1.088-1.672-2.46-1.672-4.12 0-1.66.568-3.043 1.704-4.152 1.136-1.11 2.507-1.664 4.112-1.664s3 .528 4.184 1.584l-1.296 1.872c-.5-.437-.963-.74-1.384-.904-.42-.165-.877-.248-1.368-.248-.95 0-1.75.323-2.4.968-.65.645-.976 1.496-.976 2.552s.312 1.9.936 2.536c.624.635 1.368.952 2.232.952.864 0 1.584-.165 2.16-.496v-3.072zm13.69-5.488v2.224h-5.57v2.304h5.01v2.128h-5.01v2.32h5.745V40h-8.24V28.816h8.064zm10.712 2.976c-.64-.704-1.427-1.056-2.36-1.056-.934 0-1.72.352-2.36 1.056-.64.704-.96 1.555-.96 2.552 0 .997.32 1.845.96 2.544.64.7 1.426 1.048 2.36 1.048.933 0 1.72-.35 2.36-1.048.64-.7.96-1.547.96-2.544 0-.997-.32-1.848-.96-2.552zm-2.368 8.32c-1.654 0-3.046-.552-4.176-1.656-1.13-1.104-1.696-2.477-1.696-4.12 0-1.643.565-3.016 1.696-4.12 1.13-1.104 2.522-1.656 4.176-1.656 1.653 0 3.045.552 4.176 1.656 1.13 1.104 1.696 2.477 1.696 4.12 0 1.643-.566 3.016-1.696 4.12s-2.523 1.656-4.176 1.656zm16.137-5.808h2.513v3.968c-1.11 1.237-2.646 1.856-4.608 1.856-1.643 0-3.022-.544-4.136-1.632-1.116-1.088-1.673-2.46-1.673-4.12 0-1.66.568-3.043 1.704-4.152 1.137-1.11 2.507-1.664 4.113-1.664 1.605 0 3 .528 4.184 1.584l-1.296 1.872c-.5-.437-.962-.74-1.383-.904-.422-.165-.878-.248-1.368-.248-.95 0-1.75.323-2.4.968-.652.645-.977 1.496-.977 2.552s.312 1.9.936 2.536c.623.635 1.367.952 2.23.952.865 0 1.585-.165 2.16-.496v-3.072zm14.698-1.776c0 1.792-.71 2.95-2.128 3.472l2.832 4h-3.072l-2.48-3.568h-1.728V40h-2.496V28.816h4.24c1.738 0 2.978.293 3.72.88.74.587 1.112 1.53 1.112 2.832zm-3.008 1.328c.31-.277.464-.717.464-1.32 0-.603-.16-1.016-.48-1.24-.32-.224-.88-.336-1.68-.336h-1.872v3.312h1.824c.853 0 1.434-.14 1.744-.416zM123.924 40l-1.04-2.416h-4.688L117.156 40H114.5l4.832-11.184h2.416L126.58 40h-2.656zm-3.376-7.856l-1.408 3.248h2.8l-1.392-3.248zm15.92-2.328c.785.667 1.177 1.69 1.177 3.072 0 1.38-.402 2.392-1.208 3.032-.805.64-2.034.96-3.688.96h-1.49V40h-2.495V28.816h3.952c1.718 0 2.968.333 3.752 1zm-1.83 4.4c.298-.336.447-.827.447-1.472s-.194-1.104-.584-1.376c-.388-.272-.993-.408-1.815-.408h-1.424v3.76h1.68c.833 0 1.4-.168 1.697-.504zm12.792-5.4h2.496V40h-2.496v-4.4h-4.448V40h-2.496V28.816h2.496v4.672h4.448v-4.672zm6.137 0h2.496V40h-2.496V28.816zm11.273 8.976c1.227 0 2.23-.485 3.008-1.456l1.6 1.648c-1.27 1.43-2.765 2.144-4.488 2.144-1.723 0-3.14-.544-4.256-1.632-1.115-1.088-1.672-2.46-1.672-4.12 0-1.66.568-3.043 1.704-4.152 1.136-1.11 2.525-1.664 4.168-1.664 1.835 0 3.37.7 4.608 2.096l-1.552 1.76c-.79-.98-1.77-1.472-2.944-1.472-.94 0-1.74.307-2.408.92-.667.613-1 1.44-1 2.48s.315 1.875.944 2.504c.63.63 1.392.944 2.288.944z" fill="#4F5260"/>
  </g>
</svg>
