<svg width="230" height="80" viewBox="0 0 230 80" xmlns="http://www.w3.org/2000/svg">
  <g fill="#4F5260" fill-rule="evenodd">
    <path d="M24.27 39.67c0-.204.258-.306.774-.306h.18c.432 0 .672.096.72.288l2.286 8.856c.084.336.16.696.225 1.08.066.384.1.582.1.594l2.61-10.512c.047-.204.28-.306.7-.306h.29c.42 0 .653.102.7.306l2.233 8.856.306 1.656 2.61-10.53c.048-.192.288-.288.72-.288h.108c.516 0 .774.102.774.306 0 .024-.018.108-.054.252l-3.114 11.826c-.048.192-.288.288-.72.288h-.738c-.432 0-.672-.096-.72-.288l-1.962-7.326-.378-2.34-.378 2.34-1.962 7.326c-.048.192-.288.288-.72.288h-.738c-.432 0-.672-.096-.72-.288l-3.078-11.826c-.036-.144-.054-.228-.054-.252zm22.822 12.06c0-.06.018-.144.054-.252l4.266-11.826c.06-.192.3-.288.72-.288h.522c.42 0 .66.096.72.288l4.266 11.844c.036.084.054.162.054.234 0 .204-.258.306-.774.306h-.144c-.42 0-.66-.096-.72-.288l-1.062-2.952h-5.292l-1.026 2.952c-.06.192-.3.288-.72.288h-.09c-.516 0-.774-.102-.774-.306zm3.114-4.302h4.302l-1.89-5.364-.234-1.044-.288 1.044-1.89 5.364zm18.88 4.212V40.768H65.63c-.24 0-.36-.18-.36-.54v-.288c0-.36.12-.54.36-.54h8.442c.24 0 .36.18.36.54v.288c0 .36-.12.54-.36.54H70.67V51.64c0 .264-.24.396-.72.396h-.144c-.48 0-.72-.132-.72-.396zm14.452-.18V39.94c0-.36.18-.54.54-.54h6.282c.24 0 .36.18.36.54v.288c0 .36-.12.54-.36.54h-5.238v4.104h4.698c.24 0 .36.18.36.54v.288c0 .36-.12.54-.36.54h-4.698v4.392h5.256c.24 0 .36.18.36.54v.288c0 .36-.12.54-.36.54h-6.3c-.36 0-.54-.18-.54-.54zm16.828.18v-11.7c0-.36.18-.54.54-.54h3.024c1.44 0 2.523.255 3.25.765.725.51 1.088 1.317 1.088 2.42 0 1.477-.69 2.49-2.07 3.043v.072c.348.12.64.354.873.702.235.348.484.864.748 1.548l1.404 3.546c.036.108.054.192.054.252 0 .192-.252.288-.756.288h-.18c-.408 0-.648-.096-.72-.288l-1.368-3.528c-.264-.684-.594-1.15-.99-1.395-.396-.246-.96-.37-1.692-.37h-1.62v5.185c0 .264-.24.396-.72.396h-.144c-.48 0-.72-.132-.72-.396zm1.584-6.552h2.376c.636 0 1.18-.22 1.63-.657.45-.437.674-.983.674-1.637s-.216-1.155-.648-1.503c-.432-.348-1.026-.522-1.782-.522h-2.25v4.32zm16.18 6.552v-11.7c0-.36.18-.54.54-.54h3.654c.924 0 1.776.204 2.556.612.444.228.798.59 1.062 1.09.264.497.396 1.082.396 1.754 0 .672-.105 1.245-.315 1.72-.21.473-.462.836-.756 1.088-.294.252-.633.456-1.017.612-.588.24-1.17.36-1.746.36h-2.79v5.004c0 .264-.24.396-.72.396h-.144c-.48 0-.72-.132-.72-.396zm1.584-6.372h2.808c.456 0 .906-.144 1.35-.432.24-.156.438-.4.594-.73.156-.33.234-.722.234-1.178 0-.804-.24-1.365-.72-1.683-.48-.318-1.05-.477-1.71-.477h-2.556v4.5zm15.892 6.372v-11.7c0-.36.18-.54.54-.54h3.024c1.44 0 2.523.255 3.25.765.725.51 1.088 1.317 1.088 2.42 0 1.477-.69 2.49-2.07 3.043v.072c.348.12.64.354.873.702.235.348.484.864.748 1.548l1.404 3.546c.036.108.054.192.054.252 0 .192-.252.288-.756.288h-.18c-.408 0-.648-.096-.72-.288l-1.368-3.528c-.264-.684-.594-1.15-.99-1.395-.396-.246-.96-.37-1.692-.37h-1.62v5.185c0 .264-.24.396-.72.396h-.144c-.48 0-.72-.132-.72-.396zm1.584-6.552h2.376c.636 0 1.18-.22 1.63-.657.45-.437.674-.983.674-1.637s-.216-1.155-.648-1.503c-.432-.348-1.026-.522-1.782-.522h-2.25v4.32zm15.676.576c0-2.1.47-3.687 1.413-4.76.94-1.075 2.318-1.612 4.13-1.612 1.812 0 3.192.537 4.14 1.61.948 1.075 1.422 2.662 1.422 4.762 0 2.1-.474 3.7-1.422 4.797-.948 1.1-2.325 1.648-4.13 1.648-1.807 0-3.184-.55-4.132-1.647-.948-1.097-1.422-2.696-1.422-4.796zm5.544 5.076c1.272 0 2.244-.432 2.916-1.296.672-.864 1.008-2.12 1.008-3.77s-.336-2.9-1.008-3.745c-.672-.847-1.644-1.27-2.916-1.27s-2.24.423-2.907 1.27c-.666.845-1 2.093-1 3.743s.334 2.907 1 3.77c.666.865 1.635 1.297 2.907 1.297zm14.614-5.076c0-2.1.47-3.687 1.413-4.76.942-1.075 2.32-1.612 4.13-1.612 1.813 0 3.193.537 4.14 1.61.95 1.075 1.423 2.662 1.423 4.762 0 2.1-.474 3.7-1.422 4.797-.948 1.1-2.325 1.648-4.13 1.648-1.807 0-3.184-.55-4.132-1.647-.948-1.097-1.422-2.696-1.422-4.796zm5.544 5.076c1.272 0 2.244-.432 2.916-1.296.672-.864 1.008-2.12 1.008-3.77s-.336-2.9-1.008-3.745c-.672-.847-1.644-1.27-2.916-1.27s-2.24.423-2.907 1.27c-.665.845-.998 2.093-.998 3.743s.333 2.907 1 3.77c.665.865 1.634 1.297 2.906 1.297zm15.334.9v-11.7c0-.36.18-.54.54-.54h5.67c.24 0 .36.18.36.54v.288c0 .36-.12.54-.36.54h-4.626v4.104h4.302c.24 0 .36.18.36.54v.288c0 .36-.12.54-.36.54h-4.302v5.4c0 .264-.24.396-.72.396h-.144c-.48 0-.72-.132-.72-.396zM46.78 63.528c-.624 0-1.15.222-1.58.666-.43.444-.643.982-.643 1.615s.214 1.17.644 1.615c.43.444.956.666 1.58.666.624 0 1.15-.22 1.58-.665.43-.444.643-.982.643-1.615 0-.634-.214-1.172-.643-1.616-.43-.444-.956-.666-1.58-.666zm0 5.535c-.936 0-1.722-.31-2.358-.93-.636-.623-.954-1.396-.954-2.323 0-.928.318-1.7.954-2.323.636-.62 1.422-.93 2.358-.93.936 0 1.722.31 2.358.93.636.622.954 1.395.954 2.322s-.318 1.7-.954 2.322c-.636.62-1.422.93-2.358.93zm9.036-1c.492 0 .882-.167 1.17-.503.288-.336.432-.792.432-1.368V62.71h1.062v3.527c0 .906-.25 1.603-.747 2.093-.498.49-1.137.733-1.917.733s-1.42-.244-1.917-.733c-.5-.49-.748-1.187-.748-2.093V62.71h1.062v3.482c0 .576.144 1.032.432 1.368.288.336.678.504 1.17.504zm8.505-4.382V69h-1.06v-5.32h-1.91v-.97h4.88v.97h-1.91zm9.622-.148c.606.55.91 1.313.91 2.29 0 .98-.295 1.753-.883 2.323-.59.57-1.49.855-2.7.855h-2.09v-6.29h2.16c1.13 0 1.996.273 2.602.822zm-.162 2.318c0-1.44-.825-2.16-2.475-2.16h-1.062V68h1.18c.76 0 1.344-.18 1.75-.544.405-.363.607-.898.607-1.606zm7.146-2.322c-.624 0-1.15.222-1.58.666-.43.444-.643.982-.643 1.615s.214 1.17.644 1.615c.43.444.955.666 1.58.666.623 0 1.15-.22 1.58-.665.428-.444.642-.982.642-1.616 0-.634-.215-1.172-.644-1.616-.43-.444-.956-.666-1.58-.666zm0 5.535c-.936 0-1.722-.31-2.358-.932-.636-.62-.954-1.393-.954-2.32 0-.928.318-1.7.954-2.323.636-.62 1.422-.93 2.358-.93.936 0 1.722.31 2.358.93.636.622.954 1.395.954 2.322s-.318 1.7-.954 2.32c-.636.623-1.422.933-2.358.933zm9.36-5.535c-.624 0-1.15.222-1.58.666-.43.444-.643.982-.643 1.615s.214 1.17.644 1.615c.43.444.955.666 1.58.666.623 0 1.15-.22 1.58-.665.428-.444.642-.982.642-1.616 0-.634-.215-1.172-.644-1.616-.43-.444-.956-.666-1.58-.666zm0 5.535c-.936 0-1.722-.31-2.358-.932-.636-.62-.954-1.393-.954-2.32 0-.928.318-1.7.954-2.323.636-.62 1.422-.93 2.358-.93.936 0 1.722.31 2.358.93.636.622.954 1.395.954 2.322s-.318 1.7-.954 2.32c-.636.623-1.422.933-2.358.933zm11.475-4.31c0 1.037-.452 1.69-1.358 1.96L102.05 69h-1.35l-1.504-2.115H97.8V69h-1.06v-6.29h2.34c.96 0 1.646.16 2.06.485.414.324.62.843.62 1.557zm-1.412.89c.216-.186.324-.484.324-.896 0-.41-.11-.692-.333-.846-.223-.152-.62-.228-1.19-.228H97.8v2.25h1.324c.6 0 1.008-.093 1.224-.28zm11.916-2.115c-.624 0-1.15.222-1.58.666-.43.444-.643.982-.643 1.615s.215 1.17.645 1.615c.43.444.955.666 1.58.666.623 0 1.15-.22 1.58-.665.428-.444.642-.982.642-1.616 0-.634-.214-1.172-.643-1.616-.43-.444-.956-.666-1.58-.666zm0 5.535c-.936 0-1.722-.31-2.358-.932-.636-.62-.954-1.393-.954-2.32 0-.928.318-1.7.954-2.323.636-.62 1.422-.93 2.358-.93.936 0 1.722.31 2.358.93.636.622.954 1.395.954 2.322s-.318 1.7-.954 2.32c-.636.623-1.422.933-2.358.933zm9.036-1c.492 0 .882-.167 1.17-.503.288-.336.432-.792.432-1.368V62.71h1.062v3.527c0 .906-.25 1.603-.747 2.092-.498.49-1.137.733-1.917.733s-1.42-.244-1.917-.734c-.498-.49-.747-1.187-.747-2.093V62.71h1.062v3.482c0 .576.144 1.032.432 1.368.288.336.678.504 1.17.504zm8.505-4.382V69h-1.062v-5.32h-1.908v-.97h4.878v.97h-1.908zm5.922.02v1.727h2.79v.98h-2.79V69h-1.062v-6.29h4.194l-.01.99h-3.123zm6.174-.99h1.063V69H141.9v-6.29zm6.985.97V69h-1.062v-5.32h-1.908v-.97h4.878v.97h-1.908zm7.236 0V69h-1.06v-5.32h-1.91v-.97h4.88v.97h-1.91zm9.28-.97v.998h-3.357v1.665h3.015v.945h-3.015V68h3.465v1h-4.527v-6.29h4.42zm8.29 2.042c0 1.038-.454 1.692-1.36 1.962L173.977 69h-1.35l-1.503-2.115h-1.395V69h-1.063v-6.29h2.34c.96 0 1.647.16 2.06.485.415.324.622.843.622 1.557zm-1.414.89c.216-.185.324-.483.324-.895 0-.41-.11-.692-.333-.846-.222-.152-.618-.228-1.188-.228h-1.35v2.25h1.322c.6 0 1.008-.093 1.224-.28zm7.1 3.358h-1.08v-2.484l-2.34-3.807h1.162l1.72 2.86 1.718-2.86h1.16l-2.34 3.806V69zM102.643 14.357c1.747-1.5 3.127-2.686 6.872-.57 1.8 1.016 3.25 1.4 4.457 1.398 2.115 0 3.486-1.176 4.67-2.193.424-.363.478-1.008.123-1.44-.357-.43-.987-.487-1.41-.124-1.746 1.502-3.127 2.688-6.872.57-4.948-2.793-7.266-.803-9.128.797-.422.363-.476 1.006-.12 1.44.355.43.985.486 1.408.122zm14.712 2.178c-1.746 1.5-3.127 2.688-6.872.57-4.948-2.795-7.266-.804-9.128.795-.422.363-.477 1.008-.12 1.44.354.43.985.487 1.408.124 1.747-1.5 3.127-2.687 6.872-.572 1.8 1.018 3.25 1.4 4.457 1.4 2.115 0 3.486-1.176 4.67-2.195.424-.363.478-1.008.123-1.438-.356-.434-.987-.488-1.41-.125zm0 5.106c-1.746 1.503-3.127 2.69-6.872.573-4.948-2.795-7.266-.805-9.128.795-.422.363-.477 1.008-.12 1.44.354.43.985.485 1.408.122 1.747-1.5 3.127-2.685 6.872-.57 1.8 1.016 3.25 1.4 4.457 1.4 2.115 0 3.486-1.178 4.67-2.195.424-.363.478-1.008.123-1.44-.356-.43-.987-.486-1.41-.124z"/>
  </g>
</svg>
