<svg width="230" height="80" viewBox="0 0 230 80" xmlns="http://www.w3.org/2000/svg">
  <g fill="#4F5260" fill-rule="evenodd">
    <path d="M38.712 30.366c0-2.244.782-4.165 2.346-5.763 1.564-1.598 3.468-2.397 5.712-2.397h2.618c1.496 0 2.77-.527 3.825-1.58 1.054-1.055 1.58-2.33 1.58-3.826H46.77c-3.763 0-6.998 1.32-9.707 3.96C34.353 23.403 33 26.604 33 30.367V44c1.564 0 2.907-.56 4.03-1.683 1.12-1.122 1.682-2.465 1.682-4.03v-7.92zm38.216 0c0 2.22-.782 4.148-2.346 5.78-1.564 1.632-3.457 2.448-5.678 2.448-2.244 0-4.148-.81-5.712-2.43-1.564-1.622-2.346-3.554-2.346-5.798v-7.854c0-1.564-.56-2.907-1.683-4.03-1.122-1.12-2.465-1.682-4.03-1.682v13.566c0 3.763 1.35 6.976 4.047 9.64C61.877 42.667 65.12 44 68.904 44c3.763 0 6.993-1.332 9.69-3.995 2.697-2.663 4.046-5.876 4.046-9.64V16.8c-1.564 0-2.907.56-4.03 1.683-1.12 1.122-1.682 2.465-1.682 4.03v7.853zm30.158.068c0-2.22-.782-4.148-2.346-5.78-1.564-1.632-3.457-2.448-5.678-2.448-2.244 0-4.148.81-5.712 2.43-1.564 1.622-2.346 3.554-2.346 5.798v7.854c0 1.564-.56 2.907-1.683 4.03C88.2 43.437 86.857 44 85.293 44V30.434c0-3.763 1.35-6.976 4.046-9.64 2.697-2.662 5.94-3.994 9.724-3.994 3.763 0 6.993 1.332 9.69 3.995 2.697 2.663 4.046 5.876 4.046 9.64V44c-1.564 0-2.907-.56-4.03-1.683-1.12-1.122-1.682-2.465-1.682-4.03v-7.853zm14.076 14.654V44h8.058c3.785 0 7.032-1.32 9.74-3.96 2.71-2.642 4.064-5.843 4.064-9.606s-1.36-6.976-4.08-9.64c-2.72-2.662-5.96-3.994-9.724-3.994-3.763 0-6.998 1.332-9.707 3.995-2.71 2.663-4.063 5.876-4.063 9.64V50.8c1.564 0 2.907-.56 4.03-1.683 1.12-1.122 1.682-2.465 1.682-4.03zm.034-6.494v-8.16c0-2.244.776-4.176 2.33-5.797 1.552-1.62 3.45-2.43 5.694-2.43 2.244 0 4.142.81 5.695 2.43s2.33 3.553 2.33 5.797c0 2.244-.777 4.165-2.33 5.763-1.553 1.598-3.45 2.397-5.695 2.397h-8.024zm30.294-8.228c0-2.244.782-4.165 2.346-5.763 1.564-1.598 3.468-2.397 5.712-2.397h2.618c1.496 0 2.77-.527 3.825-1.58 1.055-1.055 1.582-2.33 1.582-3.826h-8.024c-3.763 0-6.998 1.32-9.707 3.96-2.708 2.642-4.062 5.843-4.062 9.606V44c1.564 0 2.907-.56 4.03-1.683 1.12-1.122 1.682-2.465 1.682-4.03v-7.92zM182.43 16.8c3.763 0 6.998 1.332 9.707 3.995 2.71 2.663 4.063 5.876 4.063 9.64 0 3.762-1.354 6.963-4.063 9.604-2.71 2.64-5.944 3.96-9.707 3.96-3.763 0-6.993-1.32-9.69-3.96-2.697-2.642-4.046-5.843-4.046-9.606s1.35-6.976 4.046-9.64c2.697-2.662 5.927-3.994 9.69-3.994zm0 5.406c-2.244 0-4.142.81-5.695 2.43-1.553 1.622-2.33 3.554-2.33 5.798s.777 4.165 2.33 5.763c1.553 1.598 3.45 2.397 5.695 2.397 2.244 0 4.148-.8 5.712-2.397 1.564-1.598 2.346-3.52 2.346-5.763 0-2.244-.782-4.176-2.346-5.797-1.564-1.62-3.468-2.43-5.712-2.43zM41.544 58.72l-2.268 4.584H38.16l-2.256-4.584V64h-1.872v-8.388h2.532l2.16 4.608 2.172-4.608h2.52V64h-1.872v-5.28zm10.636-.876c-.48-.528-1.07-.792-1.77-.792s-1.29.264-1.77.792-.72 1.166-.72 1.914.24 1.384.72 1.908 1.07.786 1.77.786 1.29-.262 1.77-.786.72-1.16.72-1.908-.24-1.386-.72-1.914zm-1.776 6.24c-1.24 0-2.284-.414-3.132-1.242-.848-.828-1.272-1.858-1.272-3.09 0-1.232.424-2.262 1.272-3.09.848-.828 1.892-1.242 3.132-1.242 1.24 0 2.284.414 3.132 1.242.848.828 1.272 1.858 1.272 3.09 0 1.232-.424 2.262-1.272 3.09-.848.828-1.892 1.242-3.132 1.242zM61.064 64h-3.672v-8.388h3.264c.568 0 1.058.068 1.47.204.412.136.722.32.93.552.376.432.564.92.564 1.464 0 .656-.212 1.144-.636 1.464-.144.112-.244.182-.3.21-.056.028-.156.074-.3.138.52.112.934.346 1.242.702.308.356.462.798.462 1.326 0 .584-.2 1.1-.6 1.548-.464.52-1.272.78-2.424.78zm-1.8-4.992h.888c.52 0 .906-.056 1.158-.168.252-.112.378-.354.378-.726s-.116-.618-.348-.738c-.232-.12-.624-.18-1.176-.18h-.9v1.812zm0 3.408h1.284c.536 0 .938-.066 1.206-.198s.402-.392.402-.78-.142-.644-.426-.768c-.284-.124-.738-.186-1.362-.186h-1.104v1.932zm7.396-6.804h1.872V64H66.66v-8.388zM71.596 64v-8.388h1.872v6.72h3.576V64h-5.448zm13.864-8.388v1.668h-4.176v1.728h3.756v1.596h-3.756v1.74h4.308V64h-6.18v-8.388h6.048zm10.82 6.732c.92 0 1.672-.364 2.256-1.092l1.2 1.236c-.952 1.072-2.074 1.608-3.366 1.608-1.292 0-2.356-.408-3.192-1.224-.836-.816-1.254-1.846-1.254-3.09 0-1.244.426-2.282 1.278-3.114.852-.832 1.894-1.248 3.126-1.248 1.376 0 2.528.524 3.456 1.572l-1.164 1.32c-.592-.736-1.328-1.104-2.208-1.104-.704 0-1.306.23-1.806.69-.5.46-.75 1.08-.75 1.86s.236 1.406.708 1.878 1.044.708 1.716.708zM108.128 64l-.78-1.812h-3.516l-.78 1.812h-1.992l3.624-8.388h1.812L110.12 64h-1.992zm-2.532-5.892l-1.056 2.436h2.1l-1.044-2.436zm14.008.612l-2.268 4.584h-1.116l-2.256-4.584V64h-1.872v-8.388h2.532l2.16 4.608 2.172-4.608h2.52V64h-1.872v-5.28zm10.984-3.108v1.668h-4.176v1.728h3.756v1.596h-3.756v1.74h4.308V64h-6.18v-8.388h6.048zm9.604 2.784c0 1.344-.532 2.212-1.596 2.604l2.124 3h-2.304l-1.86-2.676h-1.296V64h-1.872v-8.388h3.18c1.304 0 2.234.22 2.79.66.556.44.834 1.148.834 2.124zm-2.256.996c.232-.208.348-.538.348-.99 0-.452-.12-.762-.36-.93-.24-.168-.66-.252-1.26-.252h-1.404v2.484h1.368c.64 0 1.076-.104 1.308-.312zM149.088 64l-.78-1.812h-3.516l-.78 1.812h-1.992l3.624-8.388h1.812L151.08 64h-1.992zm-2.532-5.892l-1.056 2.436h2.1l-1.044-2.436zm8.398-.822c-.18.148-.27.344-.27.588s.11.438.33.582c.22.144.728.314 1.524.51s1.414.49 1.854.882c.44.392.66.964.66 1.716s-.282 1.362-.846 1.83c-.564.468-1.306.702-2.226.702-1.328 0-2.524-.492-3.588-1.476l1.116-1.368c.904.792 1.74 1.188 2.508 1.188.344 0 .614-.074.81-.222.196-.148.294-.348.294-.6s-.104-.452-.312-.6c-.208-.148-.62-.298-1.236-.45-.976-.232-1.69-.534-2.142-.906-.452-.372-.678-.956-.678-1.752s.286-1.41.858-1.842c.572-.432 1.286-.648 2.142-.648.56 0 1.12.096 1.68.288.56.192 1.048.464 1.464.816l-.948 1.368c-.728-.552-1.48-.828-2.256-.828-.312 0-.558.074-.738.222zM187 55h7v9h-7zM177 55h7v9h-7zM167 55h7v9h-7z"/>
  </g>
</svg>
