<svg width="230" height="80" viewBox="0 0 230 80" xmlns="http://www.w3.org/2000/svg">
  <g fill="#4F5260" fill-rule="evenodd">
    <path d="M73.09 22.62c-.4-.08-.815-.18-1.245-.3-.43-.12-.815-.27-1.155-.45l.18-.87h6.6l-.18.87c-.38.2-.765.35-1.155.45-.39.1-.775.2-1.155.3L65.86 42l-1.92.36-1.38-16.32L54.43 42l-1.86.36-1.11-19.74c-.78-.18-1.49-.43-2.13-.75l.18-.87h7.74l-.18.87c-.4.16-.815.3-1.245.42-.43.12-.885.23-1.365.33l.39 12.15-.09 3.9h.06l1.83-3.96L63.64 21h1.05l1.26 13.71.15 3.9h.06l1.59-3.96 5.34-12.03zm3.24 5.85v-.75c.3-.12.64-.245 1.02-.375s.77-.245 1.17-.345c.4-.1.78-.185 1.14-.255.36-.07.68-.105.96-.105l.54.36-2.82 13.32h2.22v.78c-.42.32-.91.58-1.47.78-.56.2-1.11.3-1.65.3-.58 0-.995-.13-1.245-.39-.25-.26-.375-.56-.375-.9 0-.4.03-.79.09-1.17.06-.38.14-.8.24-1.26l2.1-9.69-1.92-.3zm2.43-6.66c0-.52.16-.93.48-1.23.32-.3.74-.45 1.26-.45.56 0 1 .15 1.32.45.32.3.48.71.48 1.23 0 .5-.16.89-.48 1.17-.32.28-.76.42-1.32.42-.52 0-.94-.14-1.26-.42-.32-.28-.48-.67-.48-1.17zm12.75 18.84c-.64-1.08-1.18-2.105-1.62-3.075-.44-.97-.86-1.875-1.26-2.715l-1.08-.3L86.14 42h-2.58l4.08-20.46-2.1-.27v-.75c.58-.26 1.285-.495 2.115-.705.83-.21 1.595-.335 2.295-.375l.63.33-2.82 14.01h.87c.42-.26.855-.58 1.305-.96.45-.38.88-.77 1.29-1.17.41-.4.775-.785 1.095-1.155.32-.37.57-.685.75-.945.02-.14.035-.33.045-.57.01-.24.01-.485 0-.735l-.03-.72c-.01-.23-.025-.405-.045-.525.74-.26 1.46-.39 2.16-.39.72 0 1.32.13 1.8.39-.26.66-.66 1.32-1.2 1.98-.54.66-1.12 1.275-1.74 1.845-.62.57-1.23 1.09-1.83 1.56-.6.47-1.08.835-1.44 1.095.14.38.365.875.675 1.485.31.61.65 1.245 1.02 1.905.37.66.76 1.3 1.17 1.92.41.62.785 1.13 1.125 1.53h1.89v.78c-.4.32-.835.58-1.305.78-.47.2-.965.3-1.485.3-.48 0-.91-.11-1.29-.33-.38-.22-.74-.62-1.08-1.2zm7.56-12.18v-.75c.3-.12.64-.245 1.02-.375s.77-.245 1.17-.345c.4-.1.78-.185 1.14-.255.36-.07.68-.105.96-.105l.54.36-2.82 13.32h2.22v.78c-.42.32-.91.58-1.47.78-.56.2-1.11.3-1.65.3-.58 0-.995-.13-1.245-.39-.25-.26-.375-.56-.375-.9 0-.4.03-.79.09-1.17.06-.38.14-.8.24-1.26l2.1-9.69-1.92-.3zm2.43-6.66c0-.52.16-.93.48-1.23.32-.3.74-.45 1.26-.45.56 0 1 .15 1.32.45.32.3.48.71.48 1.23 0 .5-.16.89-.48 1.17-.32.28-.76.42-1.32.42-.52 0-.94-.14-1.26-.42-.32-.28-.48-.67-.48-1.17zM117.31 42h-8.43l.15-.87c.48-.18.955-.325 1.425-.435.47-.11.985-.205 1.545-.285l3.78-17.85h-4.59l-2.49 4.29h-.78c.02-.4.065-.855.135-1.365s.145-1.03.225-1.56c.08-.53.165-1.05.255-1.56s.185-.965.285-1.365h17.4c-.08.4-.18.85-.3 1.35-.12.5-.25 1.015-.39 1.545s-.285 1.05-.435 1.56c-.15.51-.295.975-.435 1.395h-.78l-.63-4.29h-4.59l-3.78 17.85c.48.1.935.2 1.365.3.43.1.835.24 1.215.42l-.15.87zm15.42-13.17c-.52.2-1.105.705-1.755 1.515-.65.81-1.225 1.905-1.725 3.285l-1.8 8.37h-2.58l2.79-13.26-1.83-.27v-.75c.68-.32 1.39-.565 2.13-.735.74-.17 1.41-.285 2.01-.345l.6.36-.84 3.99h.12c.58-1.32 1.29-2.375 2.13-3.165.84-.79 1.74-1.185 2.7-1.185.26 0 .52.025.78.075.26.05.51.145.75.285 0 .18-.03.415-.09.705s-.145.585-.255.885c-.11.3-.23.585-.36.855-.13.27-.265.475-.405.615l-2.37-1.23zm8.07 11.67c.54 0 1.08-.255 1.62-.765s1.05-1.125 1.53-1.845.91-1.47 1.29-2.25.68-1.43.9-1.95l.96-5.13c-.28-.2-.55-.34-.81-.42-.26-.08-.62-.12-1.08-.12-.92 0-1.755.285-2.505.855-.75.57-1.39 1.305-1.92 2.205-.53.9-.94 1.9-1.23 3-.29 1.1-.435 2.18-.435 3.24 0 1.02.125 1.805.375 2.355s.685.825 1.305.825zm4.74-4.38c-.26.72-.585 1.45-.975 2.19s-.84 1.41-1.35 2.01c-.51.6-1.075 1.09-1.695 1.47-.62.38-1.28.57-1.98.57-2.08 0-3.12-1.51-3.12-4.53 0-1.4.2-2.765.6-4.095.4-1.33.98-2.515 1.74-3.555s1.685-1.875 2.775-2.505c1.09-.63 2.325-.945 3.705-.945.5 0 .9.045 1.2.135.3.09.66.225 1.08.405.8-.42 1.64-.63 2.52-.63l-2.7 13.71h2.19v.75c-.4.32-.88.58-1.44.78-.56.2-1.11.3-1.65.3-.58 0-.995-.125-1.245-.375-.25-.25-.375-.515-.375-.795 0-.36.07-.95.21-1.77.14-.82.35-1.86.63-3.12h-.12zm13.11 1.35c.72-1.2 1.36-2.365 1.92-3.495.56-1.13 1.04-2.265 1.44-3.405 0-.22-.025-.505-.075-.855l-.15-1.065c-.05-.36-.105-.695-.165-1.005-.06-.31-.11-.525-.15-.645.58-.24 1.175-.365 1.785-.375.61-.01 1.145.115 1.605.375-.3 1.24-.71 2.505-1.23 3.795s-1.115 2.575-1.785 3.855c-.67 1.28-1.4 2.54-2.19 3.78-.79 1.24-1.615 2.43-2.475 3.57l-1.41.36-2.22-13.62-1.92-.24v-.75c.12-.08.3-.185.54-.315.24-.13.505-.255.795-.375.29-.12.59-.22.9-.3.31-.08.605-.12.885-.12.44 0 .755.11.945.33.19.22.315.49.375.81l1.38 9.75.15 1.89h.06l.99-1.95zm17.7 1.86c-.18.38-.44.75-.78 1.11-.34.36-.74.685-1.2.975-.46.29-.98.52-1.56.69-.58.17-1.2.255-1.86.255-1.66 0-2.935-.475-3.825-1.425-.89-.95-1.335-2.265-1.335-3.945 0-1.42.2-2.76.6-4.02.4-1.26.96-2.36 1.68-3.3s1.595-1.68 2.625-2.22c1.03-.54 2.175-.81 3.435-.81.96 0 1.785.245 2.475.735.69.49 1.035 1.215 1.035 2.175 0 1.42-.705 2.54-2.115 3.36-1.41.82-3.685 1.35-6.825 1.59-.08.34-.135.67-.165.99-.03.32-.045.63-.045.93 0 1.2.305 2.18.915 2.94.61.76 1.505 1.14 2.685 1.14.38 0 .755-.06 1.125-.18s.72-.27 1.05-.45c.33-.18.63-.37.9-.57.27-.2.505-.38.705-.54l.48.57zm-3.15-11.4c-.86.02-1.66.425-2.4 1.215s-1.37 2.145-1.89 4.065c1.94-.06 3.45-.395 4.53-1.005 1.08-.61 1.62-1.455 1.62-2.535 0-.42-.125-.81-.375-1.17-.25-.36-.745-.55-1.485-.57zm10.23-6.39l-2.13-.27v-.75c.28-.12.605-.24.975-.36s.76-.235 1.17-.345c.41-.11.815-.2 1.215-.27.4-.07.76-.105 1.08-.105l.6.33-4.14 20.55h2.19v.78c-.4.32-.885.58-1.455.78-.57.2-1.125.3-1.665.3-.58 0-1.005-.13-1.275-.39s-.405-.56-.405-.9c0-.4.03-.79.09-1.17.06-.38.14-.8.24-1.26l3.51-16.92zM42.373 56.52h-2.485V63H38.37v-6.48h-2.497v-1.33h6.5v1.33zm11.547-1.33V63h-1.508v-3.333h-3.54L48.868 63h-1.517v-7.81h1.517v3.157h3.543V55.19h1.507zm11.05 6.48V63H59.55v-7.81h5.323v1.33h-3.805v1.882h3.29v1.232h-3.29v2.035h3.906zm17.383-5.15h-2.485V63H78.35v-6.48h-2.497v-1.33h6.5v1.33zm4.98 6.48v-7.81h3.454c.36 0 .69.075.995.226.304.15.566.348.787.594.22.245.39.524.516.836.124.31.187.625.187.94 0 .506-.127.966-.38 1.38-.253.415-.596.714-1.028.897L93.702 63h-1.716l-1.64-2.618h-1.495V63h-1.517zm1.518-3.95h1.904c.14 0 .27-.032.39-.098s.225-.156.314-.27c.088-.113.157-.247.21-.4.05-.155.076-.32.076-.496 0-.183-.03-.352-.088-.506-.06-.154-.138-.288-.237-.4-.1-.115-.214-.203-.342-.266-.128-.062-.258-.093-.39-.093H88.85v2.53zM97.91 63l3.08-7.81h1.233l3.07 7.81h-1.607l-.715-1.947h-2.738L99.517 63H97.91zm3.697-6.17l-1.122 3.156h2.21l-1.088-3.157zm8.697-1.64l2.112 5.907 2.09-5.907h1.595L113.055 63h-1.276l-3.07-7.81h1.596zm16.045 6.48V63h-5.424v-7.81h5.324v1.33h-3.806v1.882h3.29v1.232h-3.29v2.035h3.905zm5.22 1.33v-7.81h1.518v6.48h3.982V63h-5.5zm22.047-.88c-.602.623-1.295.935-2.08.935-.498 0-.967-.11-1.408-.33-.44-.22-.824-.515-1.15-.886-.326-.37-.583-.798-.77-1.282-.187-.484-.28-.986-.28-1.507 0-.534.093-1.038.28-1.51.187-.475.447-.89.78-1.245.335-.355.727-.637 1.178-.846.45-.21.94-.315 1.468-.315.712 0 1.32.154 1.827.462.506.308.887.722 1.144 1.243l-1.133.836c-.19-.39-.453-.686-.787-.89-.334-.206-.702-.31-1.105-.31-.323 0-.615.07-.875.21-.26.14-.482.33-.665.572-.184.242-.327.52-.43.836-.102.315-.153.65-.153 1 0 .368.053.71.164 1.03.11.32.263.595.462.83.198.235.43.42.698.556.268.135.563.203.886.203.718 0 1.367-.356 1.947-1.067v-.55h-1.573v-1.11h2.827V63h-1.253v-.88zm9.852-.407c.358 0 .66-.073.906-.22.246-.147.444-.337.594-.572.15-.234.257-.503.32-.808.06-.304.093-.617.093-.94V55.19h1.506v3.982c0 .535-.065 1.038-.193 1.507-.128.468-.33.88-.605 1.23-.275.353-.63.632-1.062.837-.432.205-.95.308-1.55.308-.624 0-1.154-.108-1.59-.325-.436-.216-.79-.502-1.06-.857-.273-.356-.47-.77-.59-1.238-.12-.47-.182-.957-.182-1.463V55.19h1.518v3.982c0 .33.032.647.094.952.062.304.17.573.32.808.15.235.345.423.587.566.243.144.54.215.89.215zM172.406 63v-7.8h1.518V63h-1.518zm7.146 0v-7.81h2.838c.638 0 1.197.103 1.677.308.48.205.88.484 1.204.836.322.352.564.764.726 1.237.16.475.242.98.242 1.514 0 .594-.09 1.13-.27 1.61-.18.482-.438.892-.776 1.233-.337.342-.742.605-1.215.792-.472.187-1.002.28-1.588.28h-2.838zm5.16-3.916c0-.374-.053-.72-.155-1.034-.104-.315-.254-.587-.453-.814-.198-.227-.44-.403-.73-.528s-.62-.187-.986-.187h-1.32v5.15h1.322c.374 0 .705-.067.995-.2.29-.13.532-.312.726-.544.194-.23.343-.504.446-.82.1-.314.153-.655.153-1.022zm12.16 2.585V63h-5.422v-7.81h5.323v1.33h-3.805v1.882h3.288v1.232h-3.288v2.035h3.905z"/>
  </g>
</svg>
