<svg width="230" height="80" viewBox="0 0 230 80" xmlns="http://www.w3.org/2000/svg">
  <g fill="#4F5260" fill-rule="evenodd">
    <path d="M129.052 17.102c.193.415.206 2.085-7.893 5.886l-7.942 3.727c-2.764 1.298-6.774 3.005-8.542 3.477-1.238.33-2.42-.51-2.42-.51s-3.565-3.193-4.512-3.91c-.945-.718-.864-1.083.348-1.47.755-.242 5.06.795 6.893 1.26 2.164-1.294 4.14-2.402 5.077-2.907-2.257-1.67-6.478-4.787-7.825-5.737-1.29-.913.017-1.242.017-1.242.594-.16 1.878-.368 2.524-.232 4.398.92 11.74 3.347 12.3 3.533 1.346-.705 3.44-1.765 4.724-2.368 3.354-1.575 6.993-.06 7.25.492zM53.146 63V50.22h8.586v2.178H55.63v3.294h5.076v2.016H55.63V63h-2.484zM64.54 49.86h2.41v10.008c0 .732.33 1.098.99 1.098.133 0 .286-.024.46-.072.174-.048.34-.102.495-.162l.324 1.926c-.325.156-.703.276-1.135.36-.432.084-.822.126-1.17.126-.756 0-1.34-.2-1.755-.603-.414-.4-.62-.974-.62-1.718V49.86zM71.646 63v-9.432h2.412V63h-2.413zm0-10.746V49.86h2.412v2.394h-2.413zm9.63 10.8c-.625 0-1.198-.126-1.72-.378s-.97-.597-1.34-1.035c-.373-.437-.66-.944-.865-1.52-.204-.576-.306-1.188-.306-1.836 0-.684.108-1.32.324-1.908.216-.588.516-1.104.9-1.548.384-.444.843-.792 1.377-1.044s1.125-.378 1.773-.378c.744 0 1.392.165 1.944.495.552.33 1.002.772 1.35 1.324v-1.656h2.106v8.982c0 .696-.13 1.32-.387 1.872-.258.552-.62 1.02-1.09 1.404-.467.384-1.02.678-1.655.882-.636.204-1.332.306-2.088.306-1.044 0-1.917-.17-2.62-.513-.7-.34-1.304-.824-1.808-1.448l1.314-1.278c.36.444.813.792 1.36 1.044.545.252 1.13.378 1.754.378.372 0 .73-.05 1.07-.153.343-.102.643-.26.9-.477.26-.216.463-.492.613-.828.15-.336.225-.732.225-1.188v-1.188c-.312.54-.75.957-1.314 1.25-.564.295-1.17.442-1.818.442zm.827-1.926c.264 0 .516-.042.756-.126.24-.084.46-.198.657-.342.198-.144.375-.312.53-.504.157-.192.277-.396.36-.612v-2.25c-.215-.552-.55-.996-1.007-1.332-.456-.336-.936-.504-1.44-.504-.372 0-.71.08-1.017.243-.306.163-.567.38-.783.65-.216.27-.38.578-.495.926-.114.348-.17.708-.17 1.08 0 .384.065.744.197 1.08.132.336.315.63.55.882.233.252.51.45.827.594.317.144.662.216 1.034.216zM99.13 63h-2.412v-5.292c0-.744-.138-1.293-.414-1.647-.276-.353-.666-.53-1.17-.53-.216 0-.444.048-.684.144-.24.096-.468.23-.684.405-.216.173-.414.38-.594.62s-.312.504-.396.792V63h-2.412V49.86h2.412v5.454c.348-.612.82-1.083 1.413-1.413.593-.33 1.25-.494 1.97-.494.612 0 1.11.105 1.494.315.384.21.684.49.9.838.216.348.366.744.45 1.188.084.444.126.9.126 1.368V63zm9.09-.486c-.325.144-.724.288-1.198.432-.474.144-.97.216-1.485.216-.336 0-.65-.042-.945-.126-.294-.084-.552-.22-.774-.405-.222-.185-.4-.425-.53-.72-.133-.293-.2-.65-.2-1.07v-5.418h-1.223v-1.854h1.224v-3.06h2.41v3.06h2v1.854h-2v4.608c0 .336.09.573.27.71.18.14.397.208.65.208.25 0 .497-.042.737-.126.24-.084.432-.156.576-.216l.486 1.908zm1.546.486l5.04-12.78h2.016L121.844 63h-2.628l-1.17-3.186h-4.482L112.394 63h-2.628zm6.048-10.098l-1.836 5.166h3.618l-1.782-5.166zm12.13 10.278c-.648 0-1.245-.126-1.79-.378-.547-.252-1.018-.6-1.414-1.044-.396-.444-.705-.963-.927-1.557-.222-.593-.333-1.232-.333-1.916 0-.684.105-1.32.315-1.908.21-.588.5-1.104.873-1.548.372-.444.816-.792 1.332-1.044.516-.252 1.08-.378 1.692-.378.684 0 1.305.168 1.863.504.558.336.993.774 1.305 1.314V49.86h2.412v10.368c0 .252.048.432.144.54.096.108.264.168.504.18V63c-.456.084-.84.126-1.152.126-.444-.012-.79-.114-1.035-.306-.246-.192-.4-.462-.46-.81l-.053-.648c-.348.6-.816 1.053-1.404 1.36-.588.305-1.212.458-1.872.458zm.63-2.052c.228 0 .462-.04.702-.117.24-.077.462-.188.666-.332.204-.144.39-.312.558-.504.168-.192.294-.402.378-.63v-2.25c-.204-.528-.537-.966-1-1.314-.46-.348-.944-.522-1.448-.522-.36 0-.693.078-1 .234-.305.156-.566.37-.782.64-.216.27-.384.578-.504.926-.12.348-.18.708-.18 1.08 0 .396.066.762.198 1.098.132.336.315.63.55.882.233.252.51.45.827.594.317.144.662.216 1.034.216zM139.517 63l-3.474-9.432h2.484l2.394 7.47 2.413-7.47h2.268L142.128 63h-2.61zm8.657 0v-9.432h2.412V63h-2.412zm0-10.746V49.86h2.412v2.394h-2.412zm9.664 10.926c-.384 0-.783-.03-1.197-.09-.413-.06-.818-.144-1.214-.252-.396-.108-.774-.24-1.134-.396-.36-.156-.678-.33-.954-.522l.972-1.638c1.2.78 2.358 1.17 3.474 1.17.504 0 .9-.09 1.188-.27.288-.18.432-.438.432-.774s-.17-.585-.513-.747c-.34-.16-.914-.338-1.718-.53-.612-.144-1.134-.294-1.566-.45-.432-.156-.78-.336-1.044-.54-.264-.204-.456-.438-.576-.702-.12-.264-.18-.576-.18-.936 0-.48.096-.912.288-1.296.192-.384.46-.71.8-.98.343-.27.745-.478 1.207-.622.463-.144.964-.216 1.504-.216.672 0 1.34.105 2.007.315.667.21 1.288.495 1.864.855l-.99 1.494c-.528-.336-1.026-.58-1.494-.73-.468-.15-.936-.224-1.404-.224-.432 0-.795.084-1.09.252-.293.168-.44.438-.44.81 0 .324.14.558.423.702.28.144.782.306 1.502.486.672.168 1.245.336 1.72.504.473.168.863.36 1.17.576.305.216.527.465.665.747s.207.62.207 1.017c0 .456-.093.87-.28 1.242-.185.372-.446.687-.782.945-.336.257-.747.455-1.233.593-.487.138-1.024.207-1.612.207zm11.177 0c-.768 0-1.458-.132-2.07-.396-.612-.264-1.13-.62-1.557-1.07-.426-.45-.753-.97-.98-1.558-.23-.588-.343-1.206-.343-1.854 0-.66.114-1.284.342-1.872.228-.588.555-1.107.98-1.557.427-.45.946-.807 1.558-1.07.612-.265 1.302-.397 2.07-.397.768 0 1.455.132 2.06.396.607.264 1.123.62 1.55 1.07.425.45.752.97.98 1.558.228.588.342 1.212.342 1.872 0 .648-.114 1.266-.342 1.854-.228.588-.552 1.107-.972 1.557-.42.45-.936.807-1.548 1.07-.612.265-1.302.397-2.07.397zm-2.466-4.878c0 .42.062.8.188 1.143.126.342.3.64.522.89.222.253.483.448.783.586.3.14.624.208.972.208s.672-.07.972-.207c.3-.137.56-.332.783-.584.222-.252.396-.552.522-.9s.19-.732.19-1.152c0-.408-.064-.786-.19-1.134-.126-.348-.3-.648-.522-.9-.222-.252-.483-.447-.783-.585-.3-.138-.624-.207-.972-.207s-.672.072-.972.216c-.3.144-.56.342-.783.594-.222.252-.396.552-.522.9s-.19.726-.19 1.134zm15.98-2.646c-.73.012-1.385.153-1.96.423-.577.27-.99.674-1.243 1.214V63h-2.412v-9.432h2.214v2.016c.323-.648.746-1.17 1.268-1.566.522-.396 1.07-.594 1.647-.594.132 0 .23.003.297.01.066.005.13.014.19.026v2.196z"/>
  </g>
</svg>
