<svg width="230" height="80" viewBox="0 0 230 80" xmlns="http://www.w3.org/2000/svg">
  <g transform="translate(22 21)" fill="#4F5260" fill-rule="evenodd">
    <path d="M10.478 37.706c0 .54-.108 1.014-.324 1.422-.216.408-.513.75-.89 1.026-.38.276-.817.486-1.315.63-.5.144-1.03.216-1.594.216H.182V28.22h6.84c.444 0 .846.096 1.206.288.36.192.666.44.918.747.252.306.447.654.585 1.044.14.39.208.782.208 1.178 0 .624-.156 1.21-.468 1.755-.312.546-.768.95-1.368 1.215.732.216 1.31.603 1.737 1.16.425.56.638 1.258.638 2.098zm-2.502-.468c0-.228-.04-.447-.117-.657-.08-.21-.184-.392-.316-.548-.132-.156-.288-.28-.468-.37-.18-.09-.378-.134-.594-.134H2.666v3.366h3.69c.228 0 .44-.042.64-.126.197-.084.368-.2.512-.35.144-.15.258-.328.342-.532.084-.204.126-.42.126-.648zm-5.31-6.894v3.222h3.312c.42 0 .777-.144 1.07-.432.295-.288.442-.684.442-1.188 0-.492-.135-.882-.405-1.17-.27-.288-.603-.432-1-.432h-3.42zM17.874 41.18c-.768 0-1.458-.132-2.07-.396-.612-.264-1.13-.62-1.557-1.07-.426-.45-.753-.97-.98-1.558-.23-.588-.343-1.206-.343-1.854 0-.66.114-1.284.342-1.872.228-.588.555-1.107.98-1.557.427-.45.946-.807 1.558-1.07.612-.265 1.302-.397 2.07-.397.768 0 1.455.132 2.06.396.607.264 1.123.62 1.55 1.07.425.45.752.97.98 1.558.228.588.342 1.212.342 1.872 0 .648-.114 1.266-.342 1.854-.228.588-.552 1.107-.972 1.557-.42.45-.936.807-1.548 1.07-.612.265-1.302.397-2.07.397zm-2.466-4.878c0 .42.063.8.19 1.143.125.342.3.64.52.89.223.253.484.448.784.586.3.14.624.208.972.208s.672-.07.972-.207c.3-.137.56-.332.783-.584.22-.252.395-.552.52-.9.127-.348.19-.732.19-1.152 0-.408-.063-.786-.19-1.134-.125-.348-.3-.648-.52-.9-.223-.252-.484-.447-.784-.585-.3-.138-.624-.207-.972-.207s-.672.072-.972.216c-.3.144-.56.342-.783.594-.223.252-.397.552-.523.9s-.19.726-.19 1.134zm14.74 4.878c-.767 0-1.457-.132-2.07-.396-.61-.264-1.13-.62-1.556-1.07-.426-.45-.753-.97-.98-1.558-.23-.588-.343-1.206-.343-1.854 0-.66.113-1.284.34-1.872.23-.588.556-1.107.982-1.557.426-.45.945-.807 1.557-1.07.61-.265 1.3-.397 2.07-.397.767 0 1.454.132 2.06.396.606.264 1.122.62 1.548 1.07.426.45.753.97.98 1.558.23.588.343 1.212.343 1.872 0 .648-.113 1.266-.34 1.854-.23.588-.553 1.107-.973 1.557-.42.45-.936.807-1.548 1.07-.613.265-1.303.397-2.07.397zm-2.465-4.878c0 .42.063.8.19 1.143.125.342.3.64.52.89.223.253.484.448.784.586.3.14.624.208.972.208.347 0 .67-.07.97-.207.3-.137.562-.332.784-.584.222-.252.396-.552.522-.9s.19-.732.19-1.152c0-.408-.064-.786-.19-1.134-.126-.348-.3-.648-.522-.9-.222-.252-.483-.447-.783-.585-.3-.138-.623-.207-.97-.207-.35 0-.673.072-.973.216-.3.144-.56.342-.783.594-.222.252-.396.552-.522.9s-.19.726-.19 1.134zM44.493 41l-2.735-4.086-1.296 1.278V41H38.05V27.86h2.412v7.974l3.78-4.248h2.574l-3.528 3.996L47.068 41h-2.574zm4.967 0v-9.432h2.412V41H49.46zm0-10.746V27.86h2.412v2.394H49.46zM64.165 41h-2.412v-5.292c0-.756-.132-1.308-.396-1.656-.264-.348-.63-.522-1.098-.522-.24 0-.487.048-.74.144-.25.096-.488.23-.71.405-.222.173-.423.38-.603.62s-.312.504-.396.792V41H55.4v-9.432h2.177v1.746c.348-.6.852-1.068 1.512-1.404.66-.336 1.403-.504 2.23-.504.59 0 1.07.108 1.44.324.373.216.66.498.865.846.204.348.345.744.423 1.188.078.444.117.894.117 1.35V41zm7.144.054c-.625 0-1.198-.126-1.72-.378s-.97-.597-1.34-1.035c-.373-.437-.66-.944-.865-1.52-.204-.576-.306-1.188-.306-1.836 0-.684.107-1.32.323-1.908.216-.588.516-1.104.9-1.548.384-.444.843-.792 1.377-1.044s1.125-.378 1.773-.378c.744 0 1.392.165 1.944.495.552.33 1.002.772 1.35 1.324v-1.656h2.106v8.982c0 .696-.13 1.32-.387 1.872-.258.552-.62 1.02-1.09 1.404-.467.384-1.02.678-1.655.882-.635.204-1.33.306-2.087.306-1.044 0-1.917-.17-2.62-.513-.7-.34-1.304-.824-1.808-1.448l1.314-1.278c.36.444.812.792 1.358 1.044s1.13.378 1.755.378c.372 0 .73-.05 1.07-.153.343-.102.643-.26.9-.477.26-.216.463-.492.613-.828.15-.336.225-.732.225-1.188v-1.188c-.31.54-.75.957-1.313 1.25-.564.295-1.17.442-1.818.442zm.827-1.926c.264 0 .516-.042.756-.126.24-.084.46-.198.657-.342.198-.144.375-.312.53-.504.157-.192.277-.396.36-.612v-2.25c-.215-.552-.55-.996-1.007-1.332-.456-.336-.936-.504-1.44-.504-.372 0-.71.08-1.017.243-.306.163-.567.38-.783.65-.216.27-.38.578-.495.926-.114.348-.17.708-.17 1.08 0 .384.065.744.197 1.08.132.336.315.63.55.882.233.252.51.45.827.594.318.144.663.216 1.035.216zm17.08-8.73H85.15V41h-2.484V30.398H78.58V28.22h10.638v2.178zm8.352 3.258c-.733.012-1.387.153-1.963.423-.576.27-.99.674-1.242 1.214V41h-2.412v-9.432h2.214v2.016c.324-.648.747-1.17 1.27-1.566.52-.396 1.07-.594 1.646-.594.132 0 .23.003.297.01.066.005.13.014.19.026v2.196zm5.18 7.524c-.455 0-.88-.075-1.277-.225-.396-.15-.738-.36-1.026-.63-.288-.27-.513-.585-.675-.945-.162-.36-.243-.756-.243-1.188 0-.444.098-.855.296-1.233.198-.38.474-.7.828-.964s.777-.47 1.27-.62c.49-.15 1.03-.226 1.62-.226.42 0 .83.036 1.232.108.402.072.76.174 1.07.306v-.54c0-.624-.176-1.104-.53-1.44-.354-.336-.88-.504-1.575-.504-.503 0-.995.09-1.475.27-.48.18-.972.444-1.476.792l-.74-1.53c1.213-.804 2.52-1.206 3.925-1.206 1.356 0 2.41.333 3.16 1 .75.665 1.124 1.628 1.124 2.888v2.934c0 .252.047.432.143.54.096.108.264.168.504.18V41c-.228.048-.44.08-.64.1-.197.017-.368.026-.512.026-.456-.012-.804-.117-1.044-.315-.24-.197-.39-.464-.45-.8l-.053-.522c-.42.552-.93.972-1.53 1.26-.6.288-1.242.432-1.926.432zm.685-1.764c.408 0 .795-.072 1.16-.216.367-.144.652-.336.856-.576.265-.204.397-.432.397-.684v-1.08c-.288-.108-.6-.195-.936-.26-.335-.067-.66-.1-.97-.1-.625 0-1.135.14-1.53.423-.397.282-.595.64-.595 1.07 0 .41.156.748.468 1.018.312.27.696.406 1.152.406zM114.072 41l-3.474-9.432h2.484l2.394 7.47 2.412-7.47h2.268L116.682 41h-2.61zm13.05.18c-.757 0-1.44-.13-2.053-.387-.613-.258-1.135-.61-1.567-1.053-.432-.444-.765-.96-1-1.548-.233-.588-.35-1.206-.35-1.854 0-.672.114-1.305.342-1.9.228-.593.558-1.115.99-1.565.432-.45.957-.807 1.575-1.07.618-.265 1.31-.397 2.08-.397.767 0 1.454.132 2.06.396.606.264 1.122.618 1.548 1.062.426.444.75.96.972 1.548.222.588.333 1.2.333 1.836 0 .156-.003.306-.01.45-.005.144-.02.264-.044.36h-7.29c.035.372.125.702.27.99.143.288.33.534.557.738.228.204.486.36.774.468.29.108.59.162.9.162.48 0 .934-.117 1.36-.35.426-.235.717-.544.873-.928l2.07.576c-.348.72-.903 1.31-1.665 1.773-.762.462-1.67.693-2.727.693zm2.447-5.688c-.06-.708-.322-1.275-.784-1.7-.462-.427-1.023-.64-1.683-.64-.324 0-.627.057-.91.17-.28.115-.53.274-.746.478-.216.204-.393.45-.53.738-.14.288-.22.606-.244.954h4.896zm5.325-7.632h2.412v10.008c0 .732.33 1.098.99 1.098.132 0 .285-.024.46-.072.173-.048.338-.102.494-.162l.325 1.926c-.324.156-.702.276-1.134.36-.43.084-.82.126-1.17.126-.755 0-1.34-.2-1.754-.603-.414-.4-.62-.974-.62-1.718V27.86zM141.95 41v-2.592h1.98V41h-1.98zm4.894-4.716c0-.66.114-1.284.342-1.872.228-.588.558-1.104.99-1.548.432-.444.954-.798 1.566-1.062.612-.264 1.302-.396 2.07-.396 1.032 0 1.91.222 2.637.666.725.444 1.268 1.026 1.628 1.746l-2.358.72c-.204-.348-.474-.615-.81-.8-.336-.187-.708-.28-1.116-.28-.348 0-.672.07-.972.207-.3.138-.56.33-.783.576-.223.247-.397.544-.523.892s-.19.732-.19 1.152c0 .42.067.804.2 1.152.13.348.308.648.53.9.222.252.483.447.783.585.3.14.618.208.954.208.432 0 .83-.108 1.197-.324.367-.216.622-.48.766-.792l2.358.72c-.324.72-.858 1.308-1.602 1.764-.744.456-1.638.684-2.682.684-.768 0-1.458-.132-2.07-.396-.612-.264-1.134-.62-1.566-1.07-.432-.45-.765-.973-1-1.567-.233-.594-.35-1.215-.35-1.863zm16.38 4.896c-.77 0-1.46-.132-2.07-.396-.613-.264-1.132-.62-1.558-1.07-.426-.45-.753-.97-.98-1.558-.23-.588-.343-1.206-.343-1.854 0-.66.114-1.284.342-1.872.228-.588.555-1.107.98-1.557.427-.45.946-.807 1.558-1.07.612-.265 1.302-.397 2.07-.397.768 0 1.455.132 2.06.396.607.264 1.123.62 1.55 1.07.425.45.752.97.98 1.558.228.588.342 1.212.342 1.872 0 .648-.114 1.266-.342 1.854-.228.588-.552 1.107-.972 1.557-.42.45-.935.807-1.547 1.07-.612.265-1.302.397-2.07.397zm-2.467-4.878c0 .42.063.8.19 1.143.125.342.3.64.52.89.223.253.484.448.784.586.3.14.625.208.973.208s.672-.07.972-.207c.3-.137.56-.332.783-.584.222-.252.396-.552.522-.9s.19-.732.19-1.152c0-.408-.064-.786-.19-1.134-.126-.348-.3-.648-.522-.9-.222-.252-.483-.447-.783-.585-.3-.138-.624-.207-.972-.207s-.672.072-.972.216c-.3.144-.56.342-.782.594-.222.252-.396.552-.522.9s-.19.726-.19 1.134zM185.777 41h-2.413v-5.292c0-.756-.132-1.308-.396-1.656-.264-.348-.624-.522-1.08-.522-.468 0-.912.183-1.332.55-.42.365-.72.842-.9 1.43V41h-2.412v-5.292c0-.756-.13-1.308-.387-1.656-.258-.348-.615-.522-1.07-.522-.47 0-.916.18-1.342.54-.426.36-.73.834-.91 1.422V41h-2.41v-9.432h2.177v1.746c.348-.612.825-1.083 1.43-1.413.607-.33 1.3-.494 2.08-.494.792 0 1.4.192 1.827.576.425.384.704.858.836 1.422.384-.648.87-1.143 1.458-1.485.588-.343 1.26-.514 2.016-.514.576 0 1.05.108 1.422.324.372.216.66.498.864.846.204.348.345.744.423 1.188.077.444.116.894.116 1.35V41z"/>
    <circle cx="63.5" cy="4.5" r="4.5"/>
    <circle cx="83.5" cy="4.5" r="4.5"/>
    <circle cx="103.5" cy="4.5" r="4.5"/>
  </g>
</svg>
