<svg width="230" height="80" viewBox="0 0 230 80" xmlns="http://www.w3.org/2000/svg">
  <g fill="#4F5260" fill-rule="evenodd">
    <path d="M95 14.005C95 11.24 97.242 9 100.005 9h33.99C136.76 9 139 11.242 139 14.005v33.99c0 2.764-2.242 5.005-5.005 5.005h-33.99C97.24 53 95 50.758 95 47.995v-33.99zm34.44 3.595V46h-5.48V33.88h-12.88V46h-5.52V17.6h5.52v11.48h12.88V17.6h5.48zM71.602 63.77V73h-1.78v-3.94h-4.187V73H63.84v-9.23h1.795v3.73h4.186v-3.73h1.782zm6.76 9.295c-.65 0-1.244-.132-1.782-.396-.537-.266-.998-.617-1.384-1.055-.386-.437-.682-.938-.89-1.5-.21-.564-.313-1.14-.313-1.73 0-.615.11-1.205.332-1.768.22-.563.53-1.062.923-1.495.394-.433.86-.778 1.398-1.033.537-.257 1.122-.385 1.754-.385.65 0 1.244.136 1.78.41.54.273.998.63 1.38 1.072.38.442.675.945.883 1.508.21.563.313 1.135.313 1.716 0 .616-.11 1.203-.332 1.763-.22.56-.526 1.052-.917 1.482-.39.43-.853.77-1.39 1.027-.538.255-1.123.383-1.756.383zm-2.562-4.68c0 .4.06.784.176 1.157.117.373.286.702.507.988.22.286.492.516.813.69.32.172.684.26 1.09.26.418 0 .784-.09 1.1-.268.316-.177.583-.413.8-.708.216-.295.38-.626.493-.995.112-.37.168-.744.168-1.125 0-.4-.06-.784-.18-1.157-.123-.373-.294-.702-.515-.988-.22-.286-.49-.513-.806-.683-.316-.17-.674-.253-1.073-.253-.416 0-.782.09-1.098.266-.316.178-.585.412-.806.702-.22.29-.388.62-.5.988-.113.37-.17.744-.17 1.125zm14.807-2.197c-.06-.06-.172-.143-.332-.247-.16-.103-.355-.205-.585-.305-.23-.1-.48-.184-.748-.253-.268-.07-.54-.104-.818-.104-.495 0-.863.09-1.106.273-.242.183-.364.44-.364.768 0 .19.046.35.137.474.092.126.224.237.397.332.174.095.393.182.657.26.264.078.57.16.916.247.45.122.86.252 1.23.39.367.14.68.313.935.52.256.21.453.458.59.748.14.29.21.648.21 1.073 0 .495-.094.917-.28 1.268-.186.352-.435.635-.748.852-.312.217-.675.375-1.092.474-.416.1-.85.15-1.3.15-.693 0-1.377-.104-2.054-.312-.675-.208-1.28-.503-1.82-.884l.794-1.547c.08.08.22.18.423.306.204.126.444.252.72.377.28.126.586.232.924.32.34.086.686.13 1.04.13.99 0 1.483-.317 1.483-.95 0-.208-.056-.38-.17-.52-.11-.14-.27-.26-.48-.364-.208-.105-.46-.2-.754-.287-.295-.087-.624-.178-.99-.273-.44-.12-.824-.253-1.15-.397-.324-.143-.595-.31-.812-.5-.216-.19-.38-.416-.487-.676-.107-.26-.162-.568-.162-.923 0-.468.087-.884.26-1.248.174-.364.414-.667.722-.91s.665-.427 1.072-.552c.408-.126.845-.19 1.314-.19.65 0 1.247.103 1.793.306.546.204 1.022.445 1.43.722l-.794 1.456zm10.333-.845h-2.938V73H96.21v-7.657h-2.952V63.77h7.682v1.573zm8.567 6.084V73h-6.41v-9.23h6.293v1.573h-4.498v2.223h3.887v1.456h-3.888v2.405h4.615zM111.948 73v-9.23h1.793v7.657h4.707V73h-6.5zm10.606-9.204h1.652l1.04 3.055 1.04-3.054h1.663l-1.572 4.2 1.17 2.95 2.613-7.176h1.95L128.355 73h-1.508l-1.6-3.874L123.65 73h-1.508l-3.744-9.23h1.937l2.626 7.176 1.143-2.95-1.547-4.2zm14.99 9.27c-.652 0-1.245-.133-1.782-.398-.538-.264-1-.615-1.385-1.053-.387-.437-.683-.938-.89-1.5-.21-.564-.313-1.14-.313-1.73 0-.615.11-1.205.33-1.768.222-.563.53-1.062.924-1.495.395-.433.86-.778 1.4-1.033.536-.257 1.12-.385 1.754-.385.65 0 1.243.136 1.78.41.538.273.997.63 1.38 1.072.38.442.674.945.883 1.508.208.563.312 1.135.312 1.716 0 .616-.112 1.203-.333 1.763-.22.56-.526 1.052-.916 1.482-.39.43-.853.77-1.39 1.027-.538.255-1.123.383-1.755.383zm-2.562-4.68c0 .398.058.783.175 1.156.116.373.285.702.506.988.22.286.492.516.813.69.32.172.683.26 1.09.26.417 0 .783-.09 1.1-.268.315-.177.582-.413.8-.708.215-.295.38-.626.493-.995.112-.37.17-.744.17-1.125 0-.4-.062-.784-.183-1.157-.122-.373-.293-.702-.514-.988-.22-.286-.49-.513-.806-.683-.316-.17-.674-.253-1.072-.253-.417 0-.783.09-1.1.266-.315.178-.584.412-.805.702-.22.29-.388.62-.5.988-.113.37-.17.744-.17 1.125zM144.328 73v-9.23h4.08c.426 0 .818.09 1.178.266.36.178.67.412.93.702s.463.62.61.988c.148.37.22.74.22 1.112 0 .598-.148 1.142-.447 1.63-.298.49-.703.844-1.215 1.06l2.17 3.472h-2.027l-1.937-3.094h-1.767V73h-1.794zm1.793-4.667h2.25c.164 0 .318-.04.46-.117.144-.078.267-.184.37-.318.106-.135.188-.293.248-.475.062-.182.093-.377.093-.585 0-.217-.035-.416-.104-.598-.07-.182-.164-.34-.28-.474-.118-.135-.252-.24-.404-.313-.152-.073-.305-.11-.46-.11h-2.172v2.99zm7.97 4.667v-9.23h1.793v7.657h4.705V73h-6.5zm8.656 0v-9.23h3.353c.754 0 1.414.12 1.982.364.568.243 1.042.572 1.424.988.38.416.666.903.857 1.462.19.56.286 1.155.286 1.788 0 .702-.107 1.337-.32 1.904-.21.568-.517 1.053-.915 1.456-.4.404-.878.715-1.437.936-.558.222-1.184.332-1.877.332h-3.354zm6.096-4.628c0-.442-.06-.85-.182-1.222-.122-.373-.3-.693-.533-.962-.234-.27-.522-.477-.864-.624-.342-.147-.73-.22-1.163-.22h-1.56v6.083h1.56c.442 0 .834-.078 1.176-.234.34-.156.627-.37.857-.643.23-.274.405-.596.526-.97.122-.372.182-.775.182-1.208z"/>
  </g>
</svg>
